# Blender 3.4.1
# www.blender.org
mtllib sphere.mtl
o Icosphere
v 0.000000 -1.000000 0.000000
v 0.723607 -0.447220 0.525725
v -0.276388 -0.447220 0.850649
v -0.894426 -0.447216 0.000000
v -0.276388 -0.447220 -0.850649
v 0.723607 -0.447220 -0.525725
v 0.276388 0.447220 0.850649
v -0.723607 0.447220 0.525725
v -0.723607 0.447220 -0.525725
v 0.276388 0.447220 -0.850649
v 0.894426 0.447216 0.000000
v 0.000000 1.000000 0.000000
v -0.162456 -0.850654 0.499995
v 0.425323 -0.850654 0.309011
v 0.262869 -0.525738 0.809012
v 0.850648 -0.525736 0.000000
v 0.425323 -0.850654 -0.309011
v -0.525730 -0.850652 0.000000
v -0.688189 -0.525736 0.499997
v -0.162456 -0.850654 -0.499995
v -0.688189 -0.525736 -0.499997
v 0.262869 -0.525738 -0.809012
v 0.951058 0.000000 0.309013
v 0.951058 0.000000 -0.309013
v 0.000000 0.000000 1.000000
v 0.587786 0.000000 0.809017
v -0.951058 0.000000 0.309013
v -0.587786 0.000000 0.809017
v -0.587786 0.000000 -0.809017
v -0.951058 0.000000 -0.309013
v 0.587786 0.000000 -0.809017
v 0.000000 0.000000 -1.000000
v 0.688189 0.525736 0.499997
v -0.262869 0.525738 0.809012
v -0.850648 0.525736 0.000000
v -0.262869 0.525738 -0.809012
v 0.688189 0.525736 -0.499997
v 0.162456 0.850654 0.499995
v 0.525730 0.850652 0.000000
v -0.425323 0.850654 0.309011
v -0.425323 0.850654 -0.309011
v 0.162456 0.850654 -0.499995
vn 0.1024 -0.9435 0.3151
vn 0.7002 -0.6617 0.2680
vn -0.2680 -0.9435 0.1947
vn -0.2680 -0.9435 -0.1947
vn 0.1024 -0.9435 -0.3151
vn 0.9050 -0.3304 0.2680
vn 0.0247 -0.3304 0.9435
vn -0.8897 -0.3304 0.3151
vn -0.5746 -0.3304 -0.7488
vn 0.5346 -0.3304 -0.7779
vn 0.8026 -0.1256 0.5831
vn -0.3066 -0.1256 0.9435
vn -0.9921 -0.1256 -0.0000
vn -0.3066 -0.1256 -0.9435
vn 0.8026 -0.1256 -0.5831
vn 0.4089 0.6617 0.6284
vn -0.4713 0.6617 0.5831
vn -0.7002 0.6617 -0.2680
vn 0.0385 0.6617 -0.7488
vn 0.7240 0.6617 -0.1947
vn 0.2680 0.9435 -0.1947
vn 0.4911 0.7947 -0.3568
vn 0.4089 0.6617 -0.6284
vn -0.1024 0.9435 -0.3151
vn -0.1876 0.7947 -0.5773
vn -0.4713 0.6617 -0.5831
vn -0.3313 0.9435 -0.0000
vn -0.6071 0.7947 -0.0000
vn -0.7002 0.6617 0.2680
vn -0.1024 0.9435 0.3151
vn -0.1876 0.7947 0.5773
vn 0.0385 0.6617 0.7488
vn 0.2680 0.9435 0.1947
vn 0.4911 0.7947 0.3568
vn 0.7240 0.6617 0.1947
vn 0.8897 0.3304 -0.3151
vn 0.7947 0.1876 -0.5773
vn 0.5746 0.3304 -0.7488
vn -0.0247 0.3304 -0.9435
vn -0.3035 0.1876 -0.9342
vn -0.5346 0.3304 -0.7779
vn -0.9050 0.3304 -0.2680
vn -0.9822 0.1876 -0.0000
vn -0.9050 0.3304 0.2680
vn -0.5346 0.3304 0.7779
vn -0.3035 0.1876 0.9342
vn -0.0247 0.3304 0.9435
vn 0.5746 0.3304 0.7488
vn 0.7947 0.1876 0.5773
vn 0.8897 0.3304 0.3151
vn 0.3066 0.1256 -0.9435
vn 0.3035 -0.1876 -0.9342
vn 0.0247 -0.3304 -0.9435
vn -0.8026 0.1256 -0.5831
vn -0.7947 -0.1876 -0.5773
vn -0.8897 -0.3304 -0.3151
vn -0.8026 0.1256 0.5831
vn -0.7947 -0.1876 0.5773
vn -0.5746 -0.3304 0.7488
vn 0.3066 0.1256 0.9435
vn 0.3035 -0.1876 0.9342
vn 0.5346 -0.3304 0.7779
vn 0.9921 0.1256 -0.0000
vn 0.9822 -0.1876 -0.0000
vn 0.9050 -0.3304 -0.2680
vn 0.4713 -0.6617 -0.5831
vn 0.1876 -0.7947 -0.5773
vn -0.0385 -0.6617 -0.7488
vn -0.4089 -0.6617 -0.6284
vn -0.4911 -0.7947 -0.3568
vn -0.7240 -0.6617 -0.1947
vn -0.7240 -0.6617 0.1947
vn -0.4911 -0.7947 0.3568
vn -0.4089 -0.6617 0.6284
vn 0.7002 -0.6617 -0.2680
vn 0.6071 -0.7947 -0.0000
vn 0.3313 -0.9435 -0.0000
vn -0.0385 -0.6617 0.7488
vn 0.1876 -0.7947 0.5773
vn 0.4713 -0.6617 0.5831
vt 0.181819 0.000000
vt 0.909091 0.000000
vt 0.727273 0.000000
vt 0.545455 0.000000
vt 0.363637 0.000000
vt 0.272728 0.157461
vt 0.090910 0.157461
vt 1.000000 0.157461
vt 0.200113 0.116015
vt 0.818182 0.157461
vt 0.119636 0.367823
vt 0.636364 0.157461
vt 0.454546 0.157461
vt 0.181819 0.314921
vt 0.449311 0.499998
vt 0.727273 0.314921
vt 0.119637 0.632179
vt 0.545455 0.314921
vt 0.363637 0.314921
vt 0.200113 0.883985
vt 0.818182 0.472382
vt 0.090910 0.472382
vt 0.272728 0.472382
vt 0.954545 0.078731
vt 0.068780 0.134111
vt 0.136365 0.078731
vt 0.318182 0.078731
vt 0.227273 0.078731
vt 0.135873 0.000045
vt 0.181819 0.157461
vt 0.363637 0.157461
vt 0.500000 0.078731
vt 0.409092 0.078731
vt 0.863636 0.078731
vt 0.772727 0.078731
vt 0.023141 0.276912
vt 0.909091 0.157461
vt 0.169630 0.245037
vt 0.590909 0.078731
vt 0.681818 0.078731
vt 0.727273 0.157461
vt 0.000045 0.425039
vt 0.545455 0.157461
vt 0.318182 0.236191
vt 0.409092 0.236191
vt 0.136365 0.236191
vt 0.227273 0.236191
vt 0.812743 0.191035
vt 0.863636 0.236191
vt 0.045455 0.236191
vt 0.812743 0.808967
vt 0.954545 0.236191
vt 0.681818 0.236191
vt 0.000045 0.574959
vt 0.772727 0.236191
vt 0.129879 0.500000
vt 0.500000 0.236191
vt 0.590909 0.236191
vt 0.272728 0.314921
vt 0.310493 0.999910
vt 0.090910 0.314921
vt 0.818182 0.314921
vt 0.310495 0.000090
vt 0.636364 0.314921
vt 0.023142 0.723088
vt 0.454546 0.314921
vt 0.136365 0.393651
vt 0.227273 0.393651
vt 0.135875 0.999955
vt 0.409092 0.393651
vt 0.318182 0.393651
vt 0.863636 0.393651
vt 0.000090 0.499999
vt 0.045455 0.393651
vt 0.169631 0.754964
vt 0.772727 0.393651
vt 0.590909 0.393651
vt 0.500000 0.393651
vt 0.068781 0.865889
s 0
usemtl red
f 1/1/1 14/28/1 13/26/1
f 2/6/2 14/27/2 16/31/2
f 1/2/3 13/24/3 18/34/3
f 1/3/4 18/35/4 20/40/4
f 1/4/5 20/39/5 17/32/5
f 2/6/6 16/31/6 23/44/6
f 3/7/7 15/30/7 25/46/7
f 4/10/8 19/37/8 27/49/8
f 5/12/9 21/41/9 29/53/9
f 6/13/10 22/43/10 31/57/10
f 2/6/11 23/44/11 26/47/11
f 3/7/12 25/46/12 28/50/12
f 4/10/13 27/49/13 30/55/13
f 5/12/14 29/53/14 32/58/14
f 6/13/15 31/57/15 24/45/15
f 9/16/18 35/62/18 41/76/18
f 10/18/19 36/64/19 42/77/19
f 11/19/20 37/66/20 39/70/20
f 39/70/22 37/66/22 42/78/22
f 37/66/23 10/18/23 42/78/23
f 41/76/27 40/72/27 12/21/27
f 41/76/28 35/62/28 40/72/28
f 40/74/30 38/67/30 12/22/30
f 40/74/31 34/61/31 38/67/31
f 38/68/33 39/71/33 12/23/33
f 38/68/34 33/59/34 39/71/34
f 33/59/35 11/19/35 39/71/35
f 24/45/36 37/66/36 11/19/36
f 24/45/37 31/57/37 37/66/37
f 31/57/38 10/18/38 37/66/38
f 32/58/39 36/64/39 10/18/39
f 32/58/40 29/53/40 36/64/40
f 30/55/42 35/62/42 9/16/42
f 30/55/43 27/49/43 35/62/43
f 28/50/46 25/46/46 34/61/46
f 26/47/49 23/44/49 33/59/49
f 23/44/50 11/19/50 33/59/50
f 31/57/51 32/58/51 10/18/51
f 31/57/52 22/43/52 32/58/52
f 22/43/53 5/12/53 32/58/53
f 27/49/58 19/37/58 28/52/58
f 19/37/59 3/8/59 28/52/59
f 25/46/61 15/30/61 26/47/61
f 15/30/62 2/6/62 26/47/62
f 23/44/63 24/45/63 11/19/63
f 23/44/64 16/31/64 24/45/64
f 16/31/65 6/13/65 24/45/65
f 17/32/66 22/43/66 6/13/66
f 17/32/67 20/39/67 22/43/67
f 20/39/68 5/12/68 22/43/68
f 20/40/69 21/41/69 5/12/69
f 20/40/70 18/35/70 21/41/70
f 16/31/75 17/33/75 6/13/75
f 16/31/76 14/27/76 17/33/76
f 14/27/77 1/5/77 17/33/77
f 13/26/79 14/28/79 15/30/79
f 14/28/80 2/6/80 15/30/80
usemtl green
f 7/14/16 33/59/16 38/68/16
f 34/61/32 7/14/32 38/67/32
f 25/46/47 7/14/47 34/61/47
f 26/47/48 33/59/48 7/14/48
f 25/46/60 26/47/60 7/14/60
usemtl textured
f 8/15/17 34/60/17 40/73/17
f 35/63/29 8/15/29 40/73/29
f 27/48/44 8/15/44 35/63/44
f 28/51/45 34/60/45 8/15/45
f 27/48/57 28/51/57 8/15/57
usemtl textured2
f 39/69/21 42/79/21 12/20/21
f 42/79/24 41/75/24 12/20/24
f 42/79/25 36/65/25 41/75/25
f 36/65/26 9/17/26 41/75/26
f 29/54/41 9/17/41 36/65/41
f 29/54/54 30/56/54 9/17/54
f 29/54/55 21/42/55 30/56/55
f 21/42/56 4/11/56 30/56/56
f 18/36/71 4/11/71 21/42/71
f 18/36/72 19/38/72 4/11/72
f 18/36/73 13/25/73 19/38/73
f 13/25/74 3/9/74 19/38/74
f 13/25/78 15/29/78 3/9/78
